<?xml version="1.0" encoding="utf-8"?>
<!-- Svg Vector Icons : http://www.onlinewebfonts.com/icon -->
<!DOCTYPE svg PUBLIC "-//W3C//DTD SVG 1.1//EN" "http://www.w3.org/Graphics/SVG/1.1/DTD/svg11.dtd">
<svg version="1.1" xmlns="http://www.w3.org/2000/svg" xmlns:xlink="http://www.w3.org/1999/xlink" x="0px" y="0px" viewBox="0 0 1000 1000" enable-background="new 0 0 1000 1000" xml:space="preserve">
<metadata> Svg Vector Icons : http://www.onlinewebfonts.com/icon </metadata>
<g><g transform="translate(0.000000,511.000000) scale(0.100000,-0.100000)"><path d="M692.6,4991.3c-192.1-64-338.7-173.4-434.8-320.1c-168-253.4-162.7-74.7-154.7-3632.8l8-3238.1l69.3-149.4c88-189.4,232.1-333.4,421.4-421.4l149.4-69.3l2296.5-8l2296.5-5.3l968.2-986.9c530.8-544.1,973.6-981.6,984.2-976.2c8,5.3,197.4,450.8,416.1,984.2l400.1,976.2l573.5,8c554.8,8,578.8,10.7,722.8,77.3c189.4,88,333.4,232.1,421.4,421.4l69.3,149.4v3294.1v3294.1l-69.3,149.4c-88,189.4-232.1,333.4-421.4,421.4l-149.4,69.4l-4214.3,5.3C1044.7,5039.3,823.3,5039.3,692.6,4991.3z M9289.2,4545.8c40-29.3,98.7-88,128-128c56-72,56-82.7,56-3323.4c0-3240.7,0-3251.4-56-3323.4c-136-184-133.4-184-896.2-197.4l-693.5-13.3l-338.7-821.5l-336.1-821.5l-824.2,829.5l-826.9,826.9l-2352.5,5.3c-2331.2,8-2355.2,8-2427.2,64c-40,29.4-98.7,88-128,128c-56,72-56,88-64,3251.4c-2.7,1749.7,0,3216.7,8,3264.7c18.7,106.7,130.7,242.7,240.1,290.7c66.7,29.4,824.2,34.7,4259.6,29.4C9211.8,4601.9,9217.2,4601.9,9289.2,4545.8z"/><path d="M6227.2,4311.1c-245.4-66.7-376.1-186.7-562.8-522.8c-53.3-96-384.1-592.1-736.2-1106.9c-352.1-512.1-696.2-1029.6-768.2-1144.3l-128-213.4l-8-1176.3c-8-1309.6-5.3-1341.6,152-1445.7l93.4-64l1680.4,8l1683.1,8l136,72c160,85.3,298.7,240,317.4,354.7c10.7,77.3,64,1845.8,74.7,2507.2c2.7,288.1-2.7,333.4-58.7,448.1c-77.3,157.4-221.4,269.4-408.1,314.7c-77.3,16-354.7,40-616.1,48l-474.8,16l109.3,146.7c266.7,354.7,384.1,653.5,384.1,973.6c0,173.4-10.7,240-66.7,360.1C6875.3,4228.5,6549.9,4396.5,6227.2,4311.1z M6560.6,3847c128-112,157.4-322.8,77.4-554.8c-72-208-200-402.7-560.1-856.2c-181.4-226.7-322.8-418.8-317.4-426.8c8-5.3,421.4-21.3,917.5-32c952.2-21.3,1002.9-26.7,1048.2-149.4c13.3-37.4,8-549.5-13.3-1285.6c-21.3-672.2-40-1259-40-1304.3c0-69.3-16-93.3-90.7-128c-80-37.3-266.7-42.7-1613.7-42.7h-1523V182.2v1112.3l322.7,440.1c413.4,565.5,1146.9,1632.4,1267,1848.4c106.7,186.7,184,280.1,264.1,314.7C6371.2,3929.7,6496.6,3905.7,6560.6,3847z"/><path d="M1996.9,1574.5c-165.4-101.3-165.4-112-162.7-1432.3c0-853.5,10.7-1221.6,32-1288.3c18.7-50.7,72-117.4,122.7-152c88-61.3,104-61.3,832.2-61.3h738.8l80,66.7c48,40,90.7,109.3,109.4,184c42.7,170.7,37.3,2395.2-5.3,2523.3c-18.7,50.7-72,117.3-122.7,152c-88,61.3-104,61.3-813.5,61.3C2130.3,1627.9,2079.6,1625.2,1996.9,1574.5z M3351.9,134.2V-932.7h-546.8h-546.8V134.2v1066.9h546.8h546.8V134.2z"/></g></g>
</svg>